<svg xmlns="http://www.w3.org/2000/svg" width="1200" height="675" viewBox="0 0 1200 675" role="img" aria-labelledby="t d"><title id="t">The Academy of Impossible Skills</title><desc id="d">Original architectural illustration of the academy atrium: a floating archive, brass orbits, illuminated benches and eight specialist rooms.</desc><defs><linearGradient id="bg" x2="0" y2="1"><stop stop-color="#19303c"/><stop offset="1" stop-color="#476966"/></linearGradient><linearGradient id="wall" x2="1" y2="1"><stop stop-color="#58736e"/><stop offset="1" stop-color="#223e47"/></linearGradient><linearGradient id="floor" x2="0" y2="1"><stop stop-color="#8f9b8c"/><stop offset="1" stop-color="#536966"/></linearGradient><linearGradient id="gold" x2="1" y2=".7"><stop stop-color="#f5d39a"/><stop offset=".5" stop-color="#b98a43"/><stop offset="1" stop-color="#785833"/></linearGradient><radialGradient id="halo"><stop stop-color="#a9e3c5" stop-opacity=".5"/><stop offset="1" stop-color="#a9e3c5" stop-opacity="0"/></radialGradient><filter id="blur"><feGaussianBlur stdDeviation="12"/></filter><pattern id="grid" width="80" height="80" patternUnits="userSpaceOnUse" patternTransform="matrix(1 .45 -1 .45 720 290)"><path d="M80 0H0V80" fill="none" stroke="#c6b285" stroke-width="1.1" opacity=".35"/></pattern></defs><rect width="1200" height="675" fill="url(#bg)"/><g fill="#253f49" opacity=".8"><path d="M370 252V95h45v157m20 0V55h62v197m12 0V116h48v136m17 0V68h75v184m39 0V21h49v231m19 0V109h90v143m30 0V65h67v187m16 0V93h61v159m10 0V29h70v223m32 0V79h68v173"/></g><path d="M210 315L710 122l480 222v258L671 675 210 530Z" fill="url(#wall)"/><path d="M230 496L715 294l485 215-310 166H515Z" fill="url(#floor)"/><path d="M230 496L715 294l485 215-310 166H515Z" fill="url(#grid)"/><g stroke="#c7bda3" stroke-width="16" fill="none"><path d="M435 437V193m130 190V143m138 185V83m138 302V145m150 305V209m157 309V278"/><path d="M434 222q355-205 714 64M435 247q355-205 713 64"/></g><g stroke="#b79354" stroke-width="4" fill="none"><path d="M435 441V192m130 194V143m138 188V83m138 305V145m150 308V209m157 312V278"/><path d="M430 469L713 352l438 198M558 527l232-132m-86 196 214-130m-73 194 207-126"/></g><g fill="#142e38" stroke="#9b8154" stroke-width="3"><path d="M470 395V267q28-36 58-22v126Z"/><path d="M590 344V215q34-39 64-24v126Z"/><path d="M744 337V194q28-11 63 28v143Z"/><path d="M886 398V255q30-13 64 25v143Z"/><path d="M1036 466V321q32-9 65 27v143Z"/></g><g font-family="sans-serif" font-size="15" fill="#e9cb8a" letter-spacing="3"><text x="481" y="304" transform="rotate(-22 481 304)">01</text><text x="606" y="255" transform="rotate(-22 606 255)">02</text><text x="765" y="262" transform="rotate(24 765 262)">03</text><text x="906" y="326" transform="rotate(24 906 326)">04</text><text x="1056" y="393" transform="rotate(24 1056 393)">05</text></g><ellipse cx="800" cy="532" rx="145" ry="49" fill="#112c32" opacity=".6"/><path d="M680 477q116-75 236 0v25q-120 74-236 0Z" fill="#b38a4c"/><ellipse cx="798" cy="477" rx="118" ry="46" fill="#273f47"/><ellipse cx="798" cy="471" rx="103" ry="39" fill="none" stroke="url(#gold)" stroke-width="5"/><ellipse cx="797" cy="387" rx="133" ry="118" fill="url(#halo)" filter="url(#blur)"/><g fill="none" stroke="url(#gold)" stroke-width="4"><ellipse cx="798" cy="383" rx="96" ry="38" transform="rotate(-37 798 383)"/><ellipse cx="798" cy="383" rx="96" ry="38" transform="rotate(42 798 383)"/><ellipse cx="798" cy="383" rx="85" ry="86"/><path d="M757 433v-97m80 97v-97m-100 20q60-23 121 0m-121 56q61 24 121 0"/></g><path d="M798 318l39 48-10 50-29 31-29-31-10-50Z" fill="#9ed2b2"/><path d="M798 318v129l-29-31-10-50Z" fill="#547e74"/><path d="M798 318l39 48-39 27-39-27Z" fill="#c5ecd3"/><path d="M798 393l39-27-10 50-29 31Z" fill="#84b7a1"/><g stroke="#cbb795" stroke-width="2"><path d="M956 502l89-37 95 43-88 42Z" fill="#b4bba7"/><path d="M956 502v63l13 5v-62m83 42v62l12-6v-61m75-37v60" fill="none"/><path d="M1001 472v-40l43-18 34 16v43l-35 19Z" fill="#263f49"/><path d="M1007 463v-28l33-14 26 12v28l-26 14Z" fill="#7aaca0"/><path d="M532 461l63-25 78 34-66 30Z" fill="#b4bba7"/><path d="M538 466v64m69-30v64m60-91v57" fill="none"/></g><g transform="translate(914 557)"><ellipse rx="25" ry="9" fill="#213a3c" opacity=".5"/><path d="M-15-81h30l4 41-12 12-22-7Z" fill="#243b43"/><path d="M-9-37l-3 35h9l4-34m8-1L11-1h9L17-38" fill="#152d38"/><path d="M-17-77l-8 29 7 4 12-31m24-3 10 27-7 4-10-28" fill="#32524f"/><circle cy="-98" r="14" fill="#c99470"/><path d="M-15-100q-2-23 25-15l5 18-18-11Z" fill="#152b34"/><path d="M-3-77h3v36" stroke="#c8a264" stroke-width="3"/><path d="M6-74h6v7H6Z" fill="#d7b067"/></g><g fill="#e6c386"><rect x="672" y="110" width="110" height="5" rx="2" transform="rotate(24 727 113)"/><rect x="857" y="194" width="110" height="5" rx="2" transform="rotate(24 912 197)"/><rect x="1023" y="270" width="110" height="5" rx="2" transform="rotate(24 1078 273)"/></g><path d="M0 0h1200v675H0Z" fill="none" stroke="#142b35" stroke-width="20"/></svg>
